<?xml version="1.0" encoding="utf-8"?>

<!DOCTYPE svg PUBLIC "-//W3C//DTD SVG 1.1//EN" "http://www.w3.org/Graphics/SVG/1.1/DTD/svg11.dtd">
<svg version="1.1" id="Layer_1" xmlns="http://www.w3.org/2000/svg" xmlns:xlink="http://www.w3.org/1999/xlink" x="0px" y="0px"
	 viewBox="0 0 2630 1166" enable-background="new 0 0 2630 1166" xml:space="preserve">
<g>
	<g>
		<path fill="#202020" d="M1100.467,885.467l75.259,83.419c-18.155-61.768-25.981-214.789,82.269-327.891
			c-111.124,103.916-251.539,94.374-323.106,60.942l75.272,83.433C869.808,912.703,738.68,1000.805,548.724,985.33
			c-118.257-10.611-210.955-56.877-287.835-148.128C4.057,529.469,325.69,25.82,772.954,229.062
			c361.677,164.139,686.15,708.172,1073.021,851.285c336.698,127.11,610.612-44.495,710.906-304.462
			c120.891-313.851-53.49-626.956-363.51-714.625c-271.495-76.859-449.154,36.634-659.288,225.575l-75.338-83.373
			c12.926,43.82,35.562,204.948-82.078,327.871c113.375-106.029,255.636-92.559,323.127-61.113l-75.326-83.359
			c224.31-201.693,395.622-304.275,652.857-140.858c366.765,239.892,135.364,804.326-277.907,737.48
			C1535.558,908.732,1176.8,134.357,654.636,53.071C334.131-7.122,2.565,274.532,37.893,637.001
			c35.838,340.875,375.641,556.141,689.347,462.484C891.2,1050.432,972.518,1001.513,1100.467,885.467z"/>
	</g>
</g>
</svg>
